<?xml version="1.0" encoding="utf-8"?>
<!-- Generator: Adobe Illustrator 17.0.0, SVG Export Plug-In . SVG Version: 6.00 Build 0)  -->
<!DOCTYPE svg PUBLIC "-//W3C//DTD SVG 1.0//EN" "http://www.w3.org/TR/2001/REC-SVG-20010904/DTD/svg10.dtd">
<svg version="1.0" id="Layer_1" xmlns="http://www.w3.org/2000/svg" xmlns:xlink="http://www.w3.org/1999/xlink" x="0px" y="0px"
	 width="250px" height="250px" viewBox="0 0 250 250" enable-background="new 0 0 250 250" xml:space="preserve">
<path fill="#00AEEF" d="M72.535,199.97c0,0-41.351-165.676,54.324-160s55.405,148.378,55.405,148.378L130.264,81.168"/>
<path fill="#F4A99D" d="M120.783,59.872c51.622-0.541,51.081,31.351,48.378,41.351s-17.838,48.595-30.811,52.811
	c-12.973,4.216-21.622,5.838-21.622,5.838l-22.703-9.73c0,0-32.432-84.609,20.541-88.926"/>
<path stroke="#000000" stroke-miterlimit="10" d="M97.54,81.449v4.865c0,0,13.514-8.919,22.162-2.432
	C112.675,69.557,97.54,81.449,97.54,81.449z"/>
<path stroke="#000000" stroke-miterlimit="10" d="M162.773,83.651l0.351,4.852c0,0-14.121-7.922-22.28-0.829
	C146.82,72.881,162.773,83.651,162.773,83.651z"/>
<path fill="#FFFFFF" d="M97.54,90.368c0,0-1.081,20.541,8.919,19.459c10-1.081,12.162-17.838,11.081-19.459
	C116.459,88.747,108.621,85.233,97.54,90.368z"/>
<path fill="#00AEEF" d="M103.507,89.208c0,0,1.457-0.44,3.233-0.661c1.776-0.22,3.872-0.22,5.149,0.661
	c2.554,1.762-0.745,18.653-3.123,19.642s-3.929,2.048-5.326,0c-0.666-0.976-2.384-5.372-2.678-9.627
	c-0.322-4.67,0.821-9.19,1.038-9.293"/>
<path fill="#FFFFFF" d="M141.875,90.74c0,0-1.081,20.541,8.919,19.459c10-1.081,12.162-17.838,11.081-19.459
	C160.793,89.119,152.956,85.605,141.875,90.74z"/>
<path fill="#8DC63F" d="M147.842,89.58c0,0,1.457-0.44,3.233-0.661c1.776-0.22,3.872-0.22,5.149,0.661
	c2.554,1.762-0.745,18.653-3.123,19.642s-3.929,2.048-5.326,0c-0.666-0.976-2.384-5.372-2.678-9.627
	c-0.322-4.67,0.821-9.19,1.038-9.293"/>
<path fill="#ED1C24" d="M108.621,130.639c0,0,1.206,7.027,10.143,7.297c8.937,0.27,16.234-7.297,16.234-7.297H108.621z"/>
</svg>
