<?xml version="1.0" encoding="utf-8"?>
<!-- Generator: Adobe Illustrator 17.0.0, SVG Export Plug-In . SVG Version: 6.00 Build 0)  -->
<!DOCTYPE svg PUBLIC "-//W3C//DTD SVG 1.0//EN" "http://www.w3.org/TR/2001/REC-SVG-20010904/DTD/svg10.dtd">
<svg version="1.0" id="Layer_1" xmlns="http://www.w3.org/2000/svg" xmlns:xlink="http://www.w3.org/1999/xlink" x="0px" y="0px"
	 width="250px" height="250px" viewBox="0 0 250 250" enable-background="new 0 0 250 250" xml:space="preserve">
<path fill="#00AEEF" d="M72.535,199.97c0,0-41.351-165.676,54.324-160s55.405,148.378,55.405,148.378L130.264,81.168"/>
<path fill="#F4A99D" d="M120.783,59.872c51.622-0.541,51.081,31.351,48.378,41.351s-17.838,48.595-30.811,52.811
	c-12.973,4.216-21.622,5.838-21.622,5.838l-22.703-9.73c0,0-32.432-84.609,20.541-88.926"/>
<path stroke="#000000" stroke-miterlimit="10" d="M99.376,75.456l-2.64,4.087c0,0,16.191-0.16,19.936,9.981
	C118.542,73.678,99.376,75.456,99.376,75.456z"/>
<path stroke="#000000" stroke-miterlimit="10" d="M156.44,79.777l2.086,4.395c0,0-16.032-2.265-21.065,7.303
	C137.669,75.521,156.44,79.777,156.44,79.777z"/>
<path fill="#ED1C24" d="M135.022,137.856c0,0-1.252-7.019-10.191-7.231c-8.939-0.212-16.186,7.403-16.186,7.403L135.022,137.856z"/>
<polygon fill="#ED1C24" points="92.838,89.523 92.838,99.216 113.649,99.216 "/>
<polygon fill="#ED1C24" points="139.021,99.216 162.027,99.216 162.027,89.523 "/>
<path fill="#ED1C24" d="M124.29,62.621c0,0-0.74,5.378,3.129,5.319c3.869-0.059,3.527-5.319,3.527-5.319h-1.365
	c0,0,0.365,3.845-2.276,3.68c-2.641-0.165-1.536-3.68-1.536-3.68H124.29z"/>
<path fill="#ED1C24" d="M120.063,73.179c0,0,5.212,0.443,4.922-3.565c-0.29-4.008-5.323-3.337-5.323-3.337l0.082,1.416
	c0,0,3.673-0.61,3.673,2.138c0,2.748-3.443,1.814-3.443,1.814L120.063,73.179z"/>
<path fill="#ED1C24" d="M129.951,77.621c0,0,0.863-5.358-3.006-5.395c-3.869-0.037-3.649,5.23-3.649,5.23l1.365,0.034
	c0,0-0.277-3.853,2.36-3.622c2.636,0.231,1.451,3.717,1.451,3.717L129.951,77.621z"/>
<path fill="#ED1C24" d="M124.29,62.621c0,0-0.74,5.378,3.129,5.319c3.869-0.059,3.527-5.319,3.527-5.319h-1.365
	c0,0,0.365,3.845-2.276,3.68c-2.641-0.165-1.536-3.68-1.536-3.68H124.29z"/>
<path fill="#ED1C24" d="M134.413,66.674c0,0-5.201-0.566-4.999,3.447c0.202,4.014,5.249,3.462,5.249,3.462l-0.051-1.417
	c0,0-3.685,0.523-3.625-2.224c0.06-2.748,3.482-1.732,3.482-1.732L134.413,66.674z"/>
</svg>
