<?xml version="1.0" encoding="utf-8"?>
<!-- Generator: Adobe Illustrator 17.0.0, SVG Export Plug-In . SVG Version: 6.00 Build 0)  -->
<!DOCTYPE svg PUBLIC "-//W3C//DTD SVG 1.0//EN" "http://www.w3.org/TR/2001/REC-SVG-20010904/DTD/svg10.dtd">
<svg version="1.0" id="Layer_1" xmlns="http://www.w3.org/2000/svg" xmlns:xlink="http://www.w3.org/1999/xlink" x="0px" y="0px"
	 width="250px" height="250px" viewBox="0 0 250 250" enable-background="new 0 0 250 250" xml:space="preserve">
<path fill="#00AEEF" d="M72.535,199.97c0,0-41.351-165.676,54.324-160s55.405,148.378,55.405,148.378l-52-107.18"/>
<path fill="#F4A99D" d="M120.783,59.872c51.622-0.541,51.081,31.351,48.378,41.351s-17.838,48.595-30.811,52.811
	s-21.622,5.838-21.622,5.838l-22.703-9.73c0,0-32.432-84.609,20.541-88.926"/>
<path stroke="#000000" stroke-miterlimit="10" d="M97.54,81.449v4.865c0,0,13.514-8.919,22.162-2.432
	C112.675,69.557,97.54,81.449,97.54,81.449z"/>
<path stroke="#000000" stroke-miterlimit="10" d="M162.773,83.651l0.351,4.852c0,0-14.121-7.922-22.28-0.829
	C146.82,72.881,162.773,83.651,162.773,83.651z"/>
<path fill="#ED1C24" d="M108.621,130.639c0,0,1.206,7.027,10.143,7.297s16.234-7.297,16.234-7.297H108.621z"/>
<path d="M94,99.25c0,0,5-8.75,12.25-8.75S117,99.25,117,99.25h-3.5c0,0-2.306-5.553-8-6S97.54,98,97.54,98L94,99.25z"/>
<path d="M139.5,100.279c0,0,5-8.75,12.25-8.75s10.75,8.75,10.75,8.75H159c0,0-2.306-5.553-8-6s-7.96,4.75-7.96,4.75L139.5,100.279z"
	/>
</svg>
