<?xml version="1.0" encoding="utf-8"?>
<!-- Generator: Adobe Illustrator 17.0.0, SVG Export Plug-In . SVG Version: 6.00 Build 0)  -->
<!DOCTYPE svg PUBLIC "-//W3C//DTD SVG 1.0//EN" "http://www.w3.org/TR/2001/REC-SVG-20010904/DTD/svg10.dtd">
<svg version="1.0" id="Layer_1" xmlns="http://www.w3.org/2000/svg" xmlns:xlink="http://www.w3.org/1999/xlink" x="0px" y="0px"
	 width="250px" height="250px" viewBox="0 0 250 250" enable-background="new 0 0 250 250" xml:space="preserve">
<circle fill="#BE1E2D" stroke="#FFFFFF" stroke-width="10" stroke-miterlimit="10" cx="129.491" cy="118.88" r="100"/>
<path fill="none" stroke="#FFFFFF" stroke-width="6" stroke-miterlimit="10" d="M102.42,134.149"/>
<path fill="#FFFFFF" d="M103.833,143.758c0,0-13.473,0.934-13.772-7.749c-0.299-8.683,10.879-12.713,16.567-12.713
	s8.283,3.731,8.283,3.731V81.219h6.587c0,0,5.389,59.281-2.994,61.078S103.833,143.758,103.833,143.758z"/>
<path fill="#FFFFFF" d="M140.576,152.416c0,0-13.473,0.934-13.772-7.749s8.154-12.689,13.842-12.689
	c5.689,0,11.008,3.707,11.008,3.707V89.877h6.587c0,0,5.389,59.281-2.994,61.078C146.863,152.751,140.576,152.416,140.576,152.416z"
	/>
<polygon fill="#FFFFFF" points="140.945,81.219 158.754,82.877 158.754,96.34 114.911,89.877 114.911,78.386 "/>
</svg>
