<?xml version="1.0" encoding="utf-8"?>
<!-- Generator: Adobe Illustrator 17.0.0, SVG Export Plug-In . SVG Version: 6.00 Build 0)  -->
<!DOCTYPE svg PUBLIC "-//W3C//DTD SVG 1.0//EN" "http://www.w3.org/TR/2001/REC-SVG-20010904/DTD/svg10.dtd">
<svg version="1.0" id="Layer_1" xmlns="http://www.w3.org/2000/svg" xmlns:xlink="http://www.w3.org/1999/xlink" x="0px" y="0px"
	 width="250px" height="250px" viewBox="0 0 250 250" enable-background="new 0 0 250 250" xml:space="preserve">
<circle fill="#0ABF53" stroke="#FFFFFF" stroke-width="10" stroke-miterlimit="10" cx="129.491" cy="118.88" r="100"/>
<path fill="none" stroke="#FFFFFF" stroke-width="6" stroke-miterlimit="10" d="M103.896,151.036"/>
<path fill="#0ABF53" stroke="#FFFFFF" stroke-width="5" stroke-miterlimit="10" d="M117.673,83.644
	c-5.796,4.173-11.171,8.364-13.292,26.516c-2.357,18.152,0,37.838,0,37.838s7.779,9.46,24.514,9.204s20.743-13.039,20.743-13.039
	s19.518-60.848-11.786-60.848L117.673,83.644z"/>
<path fill="#0ABF53" stroke="#FFFFFF" stroke-width="5" stroke-miterlimit="10" d="M104.565,108.689c0,0,14.031,13.512,51.002,3.529
	"/>
<line fill="none" stroke="#FFFFFF" stroke-width="5" stroke-miterlimit="10" x1="131.016" y1="83.316" x2="129.491" y2="115.895"/>
<path fill="none" stroke="#FFFFFF" stroke-width="5" stroke-miterlimit="10" d="M127.833,83.316c0,0-14.667-31.816,13-24.149
	s-7.551-29-8.442-29"/>
<path fill="none" stroke="#FFFFFF" stroke-width="5" stroke-miterlimit="10" d="M155.566,130.833"/>
</svg>
