<?xml version="1.0" encoding="utf-8"?>
<!-- Generator: Adobe Illustrator 17.0.0, SVG Export Plug-In . SVG Version: 6.00 Build 0)  -->
<!DOCTYPE svg PUBLIC "-//W3C//DTD SVG 1.0//EN" "http://www.w3.org/TR/2001/REC-SVG-20010904/DTD/svg10.dtd">
<svg version="1.0" id="Layer_1" xmlns="http://www.w3.org/2000/svg" xmlns:xlink="http://www.w3.org/1999/xlink" x="0px" y="0px"
	 width="250px" height="250px" viewBox="0 0 250 250" enable-background="new 0 0 250 250" xml:space="preserve">
<circle fill="#0A0A0A" stroke="#FFFFFF" stroke-width="10" stroke-miterlimit="10" cx="129.491" cy="118.88" r="100"/>
<path fill="none" stroke="#FFFFFF" stroke-width="6" stroke-miterlimit="10" d="M103.896,151.036"/>
<path fill="#FFFFFF" d="M128.309,78.72c34.668,0,45,13.667,46,28.333s-26,20-26,20l-3.167,23.982h-27.167l-1.667-23.316
	c0,0-27-4-26.667-22C89.976,87.72,107.976,78.72,128.309,78.72z"/>
<ellipse fill="#0A0A0A" cx="116.476" cy="107.054" rx="6.167" ry="10.333"/>
<ellipse fill="#0A0A0A" cx="145.143" cy="107.054" rx="6.167" ry="10.333"/>
<rect x="122.643" y="129.054" fill="#0A0A0A" width="2.333" height="15"/>
<rect x="135.476" y="128.267" fill="#0A0A0A" width="2.333" height="15"/>
<rect x="130.821" y="129.054" fill="#0A0A0A" width="2.333" height="15"/>
<rect x="126.476" y="129.054" fill="#0A0A0A" width="2.333" height="15"/>
<rect x="123.321" y="134.6" transform="matrix(0.9998 -0.0197 0.0197 0.9998 -2.6431 2.5974)" fill="#0A0A0A" width="15" height="2.333"/>
</svg>
