# Blender v2.79 (sub 0) OBJ File: ''
# www.blender.org
mtllib HEX.mtl
o Plane
v -0.798345 3.943495 -1.040204
v -1.675160 3.922946 0.033178
v -1.639159 3.903877 1.072278
v -0.578132 3.888290 2.122717
v 0.517056 3.890398 2.164190
v 0.774521 3.887847 -1.016530
v 1.693417 3.930904 -0.040834
v 1.626777 3.912064 1.160444
v 1.796890 3.909494 1.254230
v 0.604803 3.885935 2.349194
v -0.632077 3.883760 2.313409
v -1.779059 3.902434 1.095294
v -1.813754 3.922094 0.023699
v -0.881454 3.942605 -1.116894
v 0.809111 3.891865 -1.124433
v 0.831698 3.897385 -1.117923
v 1.823104 3.945051 -0.076749
vn -0.0424 0.9989 0.0199
vn -0.0937 0.9946 0.0440
vn 0.0303 0.9986 0.0441
vn -0.0114 0.9999 0.0092
vn -0.0073 0.9998 0.0186
vn -0.0068 0.9997 0.0217
vn -0.0026 0.9997 0.0242
vn 0.0018 0.9997 0.0235
usemtl None
s off
f 7//1 8//1 9//1 17//1
f 17//2 16//2 6//2 7//2
f 6//3 16//3 14//3 1//3
f 1//4 14//4 13//4 2//4
f 2//5 13//5 12//5 3//5
f 3//6 12//6 11//6 4//6
f 4//7 11//7 10//7 5//7
f 5//8 10//8 9//8 8//8
l 14 15
l 6 15
