<?xml version="1.0" encoding="UTF-8"?>
<!DOCTYPE svg PUBLIC "-//W3C//DTD SVG 1.1//EN" "http://www.w3.org/Graphics/SVG/1.1/DTD/svg11.dtd">
<svg version="1.1" width="84.65mm" height="84.77mm" viewBox="0 0 8465 8477" preserveAspectRatio="xMidYMid" fill-rule="evenodd" clip-path="url(#presentation_clip_path)" stroke-width="28.222" stroke-linejoin="round" xmlns="http://www.w3.org/2000/svg" xmlns:ooo="http://xml.openoffice.org/svg/export" xmlns:xlink="http://www.w3.org/1999/xlink" xml:space="preserve">
 <defs class="ClipPathGroup">
  <clipPath id="presentation_clip_path" clipPathUnits="userSpaceOnUse">
   <rect x="0" y="0" width="8465" height="8477"/>
  </clipPath>
 </defs>
 <defs class="TextShapeIndex">
  
 </defs>
 <defs class="EmbeddedBulletChars">
  <g id="bullet-char-template57356" transform="scale(0.00048828125,-0.00048828125)">
   <path d="M 580,1141 L 1163,571 580,0 -4,571 580,1141 Z"/>
  </g>
  <g id="bullet-char-template57354" transform="scale(0.00048828125,-0.00048828125)">
   <path d="M 8,1128 L 1137,1128 1137,0 8,0 8,1128 Z"/>
  </g>
  <g id="bullet-char-template10146" transform="scale(0.00048828125,-0.00048828125)">
   <path d="M 174,0 L 602,739 174,1481 1456,739 174,0 Z M 1358,739 L 309,1346 659,739 1358,739 Z"/>
  </g>
  <g id="bullet-char-template10132" transform="scale(0.00048828125,-0.00048828125)">
   <path d="M 2015,739 L 1276,0 717,0 1260,543 174,543 174,936 1260,936 717,1481 1274,1481 2015,739 Z"/>
  </g>
  <g id="bullet-char-template10007" transform="scale(0.00048828125,-0.00048828125)">
   <path d="M 0,-2 C -7,14 -16,27 -25,37 L 356,567 C 262,823 215,952 215,954 215,979 228,992 255,992 264,992 276,990 289,987 310,991 331,999 354,1012 L 381,999 492,748 772,1049 836,1024 860,1049 C 881,1039 901,1025 922,1006 886,937 835,863 770,784 769,783 710,716 594,584 L 774,223 C 774,196 753,168 711,139 L 727,119 C 717,90 699,76 672,76 641,76 570,178 457,381 L 164,-76 C 142,-110 111,-127 72,-127 30,-127 9,-110 8,-76 1,-67 -2,-52 -2,-32 -2,-23 -1,-13 0,-2 Z"/>
  </g>
  <g id="bullet-char-template10004" transform="scale(0.00048828125,-0.00048828125)">
   <path d="M 285,-33 C 182,-33 111,30 74,156 52,228 41,333 41,471 41,549 55,616 82,672 116,743 169,778 240,778 293,778 328,747 346,684 L 369,508 C 377,444 397,411 428,410 L 1163,1116 C 1174,1127 1196,1133 1229,1133 1271,1133 1292,1118 1292,1087 L 1292,965 C 1292,929 1282,901 1262,881 L 442,47 C 390,-6 338,-33 285,-33 Z"/>
  </g>
  <g id="bullet-char-template9679" transform="scale(0.00048828125,-0.00048828125)">
   <path d="M 813,0 C 632,0 489,54 383,161 276,268 223,411 223,592 223,773 276,916 383,1023 489,1130 632,1184 813,1184 992,1184 1136,1130 1245,1023 1353,916 1407,772 1407,592 1407,412 1353,268 1245,161 1136,54 992,0 813,0 Z"/>
  </g>
  <g id="bullet-char-template8226" transform="scale(0.00048828125,-0.00048828125)">
   <path d="M 346,457 C 273,457 209,483 155,535 101,586 74,649 74,723 74,796 101,859 155,911 209,963 273,989 346,989 419,989 480,963 531,910 582,859 608,796 608,723 608,648 583,586 532,535 482,483 420,457 346,457 Z"/>
  </g>
  <g id="bullet-char-template8211" transform="scale(0.00048828125,-0.00048828125)">
   <path d="M -4,459 L 1135,459 1135,606 -4,606 -4,459 Z"/>
  </g>
 </defs>
 <defs class="TextEmbeddedBitmaps"/>
 <g>
  <g id="id2" class="Master_Slide">
   <g id="bg-id2" class="Background"/>
   <g id="bo-id2" class="BackgroundObjects"/>
  </g>
 </g>
 <g class="SlideGroup">
  <g>
   <g id="id1" class="Slide" clip-path="url(#presentation_clip_path)">
    <g class="Page">
     <g class="com.sun.star.drawing.PolyPolygonShape">
      <g id="id3">
       <path fill="rgb(255,255,255)" stroke="none" d="M 486,6913 L 1368,6913 1809,7676 1368,8440 486,8440 45,7676 486,6913 Z M 3130,6911 L 4012,6911 4453,7675 4012,8438 3130,8438 2689,7675 3130,6911 Z M 5776,6911 L 6658,6911 7099,7675 6658,8438 5776,8438 5335,7675 5776,6911 Z M 7981,7675 L 7099,7675 6658,6911 7099,6147 7981,6147 8421,6911 7981,7675 Z M 5335,7675 L 4453,7675 4012,6911 4453,6147 5335,6147 5776,6911 5335,7675 Z M 2689,7675 L 1807,7675 1366,6911 1807,6147 2689,6147 3130,6911 2689,7675 Z M 484,5383 L 1366,5383 1807,6147 1366,6911 484,6911 43,6147 484,5383 Z M 3130,5383 L 4012,5383 4453,6147 4012,6911 3130,6911 2689,6147 3130,5383 Z M 5776,5383 L 6658,5383 7099,6147 6658,6911 5776,6911 5335,6147 5776,5383 Z M 7981,6147 L 7099,6147 6658,5383 7099,4620 7981,4620 8421,5383 7981,6147 Z M 5335,6147 L 4453,6147 4012,5383 4453,4620 5335,4620 5776,5383 5335,6147 Z M 2689,6147 L 1807,6147 1366,5383 1807,4620 2689,4620 3130,5383 2689,6147 Z M 484,3856 L 1366,3856 1807,4620 1366,5383 484,5383 43,4620 484,3856 Z M 3130,3856 L 4012,3856 4453,4620 4012,5383 3130,5383 2689,4620 3130,3856 Z M 5776,3856 L 6658,3856 7099,4620 6658,5383 5776,5383 5335,4620 5776,3856 Z M 7981,4620 L 7099,4620 6658,3856 7099,3092 7981,3092 8421,3856 7981,4620 Z M 5335,4620 L 4453,4620 4012,3856 4453,3092 5335,3092 5776,3856 5335,4620 Z M 2689,4620 L 1807,4620 1366,3856 1807,3092 2689,3092 3130,3856 2689,4620 Z M 484,2328 L 1366,2328 1807,3092 1366,3856 484,3856 43,3092 484,2328 Z M 3130,2328 L 4012,2328 4453,3092 4012,3856 3130,3856 2689,3092 3130,2328 Z M 5776,2328 L 6658,2328 7099,3092 6658,3856 5776,3856 5335,3092 5776,2328 Z M 7981,3092 L 7099,3092 6658,2328 7099,1565 7981,1565 8421,2328 7981,3092 Z M 5335,3092 L 4453,3092 4012,2328 4453,1565 5335,1565 5776,2328 5335,3092 Z M 2689,3092 L 1807,3092 1366,2328 1807,1565 2689,1565 3130,2328 2689,3092 Z M 484,801 L 1366,801 1807,1565 1366,2328 484,2328 43,1565 484,801 Z M 3130,801 L 4012,801 4453,1565 4012,2328 3130,2328 2689,1565 3130,801 Z M 5776,801 L 6658,801 7099,1565 6658,2328 5776,2328 5335,1565 5776,801 Z M 7981,1565 L 7099,1565 6658,801 7099,37 7981,37 8421,801 7981,1565 Z M 5335,1565 L 4453,1565 4012,801 4453,37 5335,37 5776,801 5335,1565 Z M 2689,1565 L 1807,1565 1366,801 1807,37 2689,37 3130,801 2689,1565 Z"/>
       <path fill="none" stroke="rgb(0,0,0)" stroke-width="71" d="M 486,6913 L 1368,6913 1809,7676 1368,8440 486,8440 45,7676 486,6913 Z"/>
       <path fill="none" stroke="rgb(0,0,0)" stroke-width="71" d="M 3130,6911 L 4012,6911 4453,7675 4012,8438 3130,8438 2689,7675 3130,6911 Z"/>
       <path fill="none" stroke="rgb(0,0,0)" stroke-width="71" d="M 5776,6911 L 6658,6911 7099,7675 6658,8438 5776,8438 5335,7675 5776,6911 Z"/>
       <path fill="none" stroke="rgb(0,0,0)" stroke-width="71" d="M 7981,7675 L 7099,7675 6658,6911 7099,6147 7981,6147 8421,6911 7981,7675 Z"/>
       <path fill="none" stroke="rgb(0,0,0)" stroke-width="71" d="M 5335,7675 L 4453,7675 4012,6911 4453,6147 5335,6147 5776,6911 5335,7675 Z"/>
       <path fill="none" stroke="rgb(0,0,0)" stroke-width="71" d="M 2689,7675 L 1807,7675 1366,6911 1807,6147 2689,6147 3130,6911 2689,7675 Z"/>
       <path fill="none" stroke="rgb(0,0,0)" stroke-width="71" d="M 484,5383 L 1366,5383 1807,6147 1366,6911 484,6911 43,6147 484,5383 Z"/>
       <path fill="none" stroke="rgb(0,0,0)" stroke-width="71" d="M 3130,5383 L 4012,5383 4453,6147 4012,6911 3130,6911 2689,6147 3130,5383 Z"/>
       <path fill="none" stroke="rgb(0,0,0)" stroke-width="71" d="M 5776,5383 L 6658,5383 7099,6147 6658,6911 5776,6911 5335,6147 5776,5383 Z"/>
       <path fill="none" stroke="rgb(0,0,0)" stroke-width="71" d="M 7981,6147 L 7099,6147 6658,5383 7099,4620 7981,4620 8421,5383 7981,6147 Z"/>
       <path fill="none" stroke="rgb(0,0,0)" stroke-width="71" d="M 5335,6147 L 4453,6147 4012,5383 4453,4620 5335,4620 5776,5383 5335,6147 Z"/>
       <path fill="none" stroke="rgb(0,0,0)" stroke-width="71" d="M 2689,6147 L 1807,6147 1366,5383 1807,4620 2689,4620 3130,5383 2689,6147 Z"/>
       <path fill="none" stroke="rgb(0,0,0)" stroke-width="71" d="M 484,3856 L 1366,3856 1807,4620 1366,5383 484,5383 43,4620 484,3856 Z"/>
       <path fill="none" stroke="rgb(0,0,0)" stroke-width="71" d="M 3130,3856 L 4012,3856 4453,4620 4012,5383 3130,5383 2689,4620 3130,3856 Z"/>
       <path fill="none" stroke="rgb(0,0,0)" stroke-width="71" d="M 5776,3856 L 6658,3856 7099,4620 6658,5383 5776,5383 5335,4620 5776,3856 Z"/>
       <path fill="none" stroke="rgb(0,0,0)" stroke-width="71" d="M 7981,4620 L 7099,4620 6658,3856 7099,3092 7981,3092 8421,3856 7981,4620 Z"/>
       <path fill="none" stroke="rgb(0,0,0)" stroke-width="71" d="M 5335,4620 L 4453,4620 4012,3856 4453,3092 5335,3092 5776,3856 5335,4620 Z"/>
       <path fill="none" stroke="rgb(0,0,0)" stroke-width="71" d="M 2689,4620 L 1807,4620 1366,3856 1807,3092 2689,3092 3130,3856 2689,4620 Z"/>
       <path fill="none" stroke="rgb(0,0,0)" stroke-width="71" d="M 484,2328 L 1366,2328 1807,3092 1366,3856 484,3856 43,3092 484,2328 Z"/>
       <path fill="none" stroke="rgb(0,0,0)" stroke-width="71" d="M 3130,2328 L 4012,2328 4453,3092 4012,3856 3130,3856 2689,3092 3130,2328 Z"/>
       <path fill="none" stroke="rgb(0,0,0)" stroke-width="71" d="M 5776,2328 L 6658,2328 7099,3092 6658,3856 5776,3856 5335,3092 5776,2328 Z"/>
       <path fill="none" stroke="rgb(0,0,0)" stroke-width="71" d="M 7981,3092 L 7099,3092 6658,2328 7099,1565 7981,1565 8421,2328 7981,3092 Z"/>
       <path fill="none" stroke="rgb(0,0,0)" stroke-width="71" d="M 5335,3092 L 4453,3092 4012,2328 4453,1565 5335,1565 5776,2328 5335,3092 Z"/>
       <path fill="none" stroke="rgb(0,0,0)" stroke-width="71" d="M 2689,3092 L 1807,3092 1366,2328 1807,1565 2689,1565 3130,2328 2689,3092 Z"/>
       <path fill="none" stroke="rgb(0,0,0)" stroke-width="71" d="M 484,801 L 1366,801 1807,1565 1366,2328 484,2328 43,1565 484,801 Z"/>
       <path fill="none" stroke="rgb(0,0,0)" stroke-width="71" d="M 3130,801 L 4012,801 4453,1565 4012,2328 3130,2328 2689,1565 3130,801 Z"/>
       <path fill="none" stroke="rgb(0,0,0)" stroke-width="71" d="M 5776,801 L 6658,801 7099,1565 6658,2328 5776,2328 5335,1565 5776,801 Z"/>
       <path fill="none" stroke="rgb(0,0,0)" stroke-width="71" d="M 7981,1565 L 7099,1565 6658,801 7099,37 7981,37 8421,801 7981,1565 Z"/>
       <path fill="none" stroke="rgb(0,0,0)" stroke-width="71" d="M 5335,1565 L 4453,1565 4012,801 4453,37 5335,37 5776,801 5335,1565 Z"/>
       <path fill="none" stroke="rgb(0,0,0)" stroke-width="71" d="M 2689,1565 L 1807,1565 1366,801 1807,37 2689,37 3130,801 2689,1565 Z"/>
      </g>
     </g>
    </g>
   </g>
  </g>
 </g>
</svg>